<svg xmlns="http://www.w3.org/2000/svg" viewBox="0 0 1431.8 1032.54"><defs><style>.cls-1{opacity:0.2;}.cls-2{fill:#39bcec;}.cls-3{fill:#0a1f34;}</style></defs><g id="Layer_2" data-name="Layer 2"><g id="Layer_1-2" data-name="Layer 1"><g class="cls-1"><path class="cls-2" d="M688.46,1.06l.66,1031.48c-52.18-52.16-52.84-53.6-52.84-53.6s.66,1.44-78.77-78c0,0,0-767.59,0-767.62a10.72,10.72,0,0,1,1.44-1.83c129.4-130.62.21-.2,129.2-130.42Z"/><path class="cls-3" d="M179.55,1.06,69,133.31H0L55.16,67.18,110.33,1.06Z"/><polygon class="cls-3" points="276.1 1.06 165.55 133.31 116 133.31 226.56 1.06 276.1 1.06"/><path class="cls-3" d="M688.46,1.06C567.52,123.15,558.62,132,557.65,133.14a1,1,0,0,0-.13.17H212.57L323.13,1.06Z"/><path class="cls-2" d="M742.37,934,874.64,801.72v98.54C725.85,1049,855.71,919.2,742.37,1032.51Z"/><polygon class="cls-2" points="742.37 819.87 874.64 687.58 874.64 750.69 742.37 882.97 742.37 819.87"/><path class="cls-2" d="M874.62,156.43c0,.55,0,1.1,0,1.64V636.55L742.37,768.84V0h579.09L1431.8,132.25H874.62Z"/><path class="cls-3" d="M1349.83,187.17l-98.25,132.25H1059.85V717.59L928.48,848.94V187.17Z"/><path class="cls-3" d="M82.25,187.17,180.5,319.42H372.22V717.59L503.59,848.94V187.17Z"/></g></g></g></svg>